<svg width="214" height="214" viewBox="0 0 214 214" fill="none" xmlns="http://www.w3.org/2000/svg">
<g clip-path="url(#clip0_662_2)">
<path fill-rule="evenodd" clip-rule="evenodd" d="M204 214C209.523 214 214 209.523 214 204V171H200V195C200 197.761 197.761 200 195 200H171V214H204Z" fill="#348EB4"/>
<path fill-rule="evenodd" clip-rule="evenodd" d="M10 214C4.47715 214 0 209.523 0 204V171H14V195C14 197.761 16.2386 200 19 200H43V214H10Z" fill="#348EB4"/>
<path fill-rule="evenodd" clip-rule="evenodd" d="M204 0C209.523 0 214 4.47715 214 10V43H200V19C200 16.2386 197.761 14 195 14H171V0H204Z" fill="#348EB4"/>
<path fill-rule="evenodd" clip-rule="evenodd" d="M10 0C4.47715 0 0 4.47715 0 10V43H14V19C14 16.2386 16.2386 14 19 14H43V0H10Z" fill="#348EB4"/>
<g clip-path="url(#clip1_662_2)">
<path d="M103.481 71.2301L104.056 71.2341L104.354 71.236L104.996 71.2419L105.326 71.2459L106.045 71.2557L106.415 71.2616L107.222 71.2734L108.544 71.295L109.085 71.3049L110.1 71.3245L110.596 71.3344L111.532 71.358L111.99 71.3698L112.852 71.3973L113.277 71.4111L114.076 71.4445L114.468 71.4602L115.211 71.4976L115.576 71.5173L116.271 71.5625L116.956 71.6077L118.213 71.7218L118.828 71.7828L119.996 71.9323L120.573 72.0129L121.714 72.2037L122.286 72.3059L123.463 72.5459L125.337 72.9668L125.696 73.0513L126.509 73.2362L126.924 73.3286L127.773 73.5116L128.192 73.602L128.978 73.7633L129.165 73.8026L129.51 73.8715L129.97 73.96L130.63 74.0819L131.933 74.3533L132.251 74.4222L132.863 74.5598L133.162 74.6287L133.724 74.7644L133.996 74.8313L134.49 74.9591L134.726 75.022L135.133 75.14L135.324 75.1971L135.631 75.2974L135.953 75.4291L135.986 75.4449L136.119 75.496L136.195 75.5255L136.405 75.5963L136.521 75.6337L136.799 75.7222L136.946 75.7694L137.281 75.8717L137.631 75.9759L138.455 76.2159L139.799 76.5935L140.912 76.8983L143.14 77.567L144.255 77.9132L146.518 78.6743L147.656 79.0677L149.988 79.933L153.607 81.3629L153.885 81.4769L154.488 81.7188L154.794 81.8408L155.435 82.0945L156.082 82.3482L157.412 82.8576L158.068 83.1074L159.296 83.5597L159.589 83.6679L160.132 83.8606L160.853 84.1144L161.286 84.2619L162.228 84.5864L162.708 84.7536L163.716 85.1076L164.733 85.4636L166.801 86.2011L167.306 86.382L168.277 86.7321L168.754 86.9052L169.636 87.2277L170.063 87.3851L170.815 87.6644L171.759 88.0223L172.13 88.1659L172.999 88.4963L173.209 88.5769L173.597 88.7225L174.081 88.9034L174.153 88.9309L174.363 89.0116L174.479 89.0568L174.77 89.1729L174.925 89.2338L175.286 89.3794L175.473 89.4541L175.896 89.6252L176.33 89.8022L177.338 90.2133L177.859 90.4277L178.98 90.8898L179.548 91.1239L180.702 91.6038L181.277 91.8418L182.389 92.3059L182.931 92.5341L183.918 92.949L184.153 93.0493L184.588 93.2323L185.174 93.484L185.447 93.6L185.948 93.8183L186.192 93.9246L186.638 94.1212L186.854 94.2156L187.249 94.3946L187.441 94.4811L187.784 94.6424L188.118 94.8017L188.649 95.0751L188.894 95.2049L189.265 95.437L189.433 95.5491L189.666 95.7536L189.766 95.8539L189.886 96.0487L189.934 96.145L189.961 96.3417L189.923 96.6583L189.902 96.741L189.811 96.9121L189.755 96.9986L189.595 97.1776L189.508 97.268L189.282 97.4529L189.162 97.5454L188.873 97.7361L188.722 97.8325L188.373 98.0292L188.191 98.1275L187.782 98.3281L187.572 98.4284L187.105 98.631L186.865 98.7333L186.346 98.9398L186.08 99.0421L185.506 99.2505L185.213 99.3548L184.59 99.5632L183.953 99.7717L182.538 100.191L181.808 100.397L180.216 100.808L177.647 101.412L177.342 101.479L176.774 101.613L176.504 101.678L176.042 101.796L175.83 101.853L175.525 101.945L175.461 101.965L175.373 101.998L175.301 102.037L175.284 102.055L175.22 102.175L175.184 102.246L175.089 102.45L174.751 103.255L174.618 103.591L174.381 104.185L174.265 104.472L174.052 104.99L173.842 105.491L173.446 106.364L173.244 106.795L172.792 107.684L172.67 107.916L172.4 108.418L171.945 109.253L171.582 109.912L170.81 111.214L170.416 111.863L169.582 113.144L169.159 113.781L168.268 115.038L167.816 115.663L166.87 116.892L166.391 117.502L165.393 118.702L164.888 119.298L163.841 120.466L163.311 121.046L162.218 122.179L161.666 122.74L160.529 123.835L159.956 124.378L158.777 125.432L158.184 125.955L156.968 126.966L156.354 127.468L155.103 128.433L154.474 128.911L153.19 129.828L152.544 130.282L151.231 131.149L150.571 131.576L149.23 132.39L148.556 132.79L147.193 133.547L145.122 134.619L144.281 135.032L142.607 135.797L141.769 136.171L140.096 136.855L139.256 137.189L137.567 137.799L136.72 138.096L135.004 138.635L134.141 138.894L132.383 139.367L131.499 139.595L129.688 140.004L128.773 140.2L126.895 140.549L123.986 141.011L123.843 141.03L123.444 141.076L123.226 141.099L122.693 141.15L122.411 141.176L121.766 141.229L121.43 141.257L120.693 141.314L120.317 141.341L119.51 141.4L119.099 141.43L118.242 141.487L117.377 141.546L115.588 141.656L114.698 141.709L112.984 141.803L112.567 141.825L111.777 141.864L111.393 141.882L110.679 141.915L110.335 141.929L109.72 141.953L109.426 141.963L108.928 141.976L108.697 141.98L108.34 141.982L107.982 141.972L107.961 141.971L107.807 141.961L107.712 141.957L107.423 141.941L107.261 141.933L106.851 141.913L106.633 141.904L106.122 141.878L105.853 141.866L105.255 141.839L104.946 141.823L104.276 141.794L103.591 141.762L102.078 141.695L101.308 141.66L99.6844 141.579L98.8718 141.538L97.3025 141.451L96.9223 141.43L96.2023 141.386L95.8529 141.365L95.2101 141.325L94.9013 141.304L94.357 141.266L93.6814 141.215L93.4613 141.198L92.9556 141.154L92.6912 141.131L92.1121 141.076L91.8129 141.048L91.1721 140.985L90.844 140.954L90.1568 140.883L89.458 140.812L87.9795 140.657L87.2344 140.578L85.7443 140.417L85.0089 140.334L83.6152 140.177L83.2794 140.137L82.6424 140.063L82.3297 140.025L81.7545 139.957L81.4765 139.923L80.9766 139.86L80.7373 139.831L80.3261 139.776L80.1331 139.75L79.8262 139.705L79.4942 139.652L79.361 139.626L79.029 139.571L78.8533 139.542L78.4731 139.486L77.3709 139.345L77.2416 139.331L76.9077 139.29L76.7301 139.266L76.3112 139.207L76.0912 139.176L75.5951 139.101L75.3365 139.062L74.7709 138.973L74.4814 138.928L73.8579 138.828L73.5394 138.775L72.8677 138.664L72.1863 138.55L70.7155 138.297L69.2234 138.039L66.1273 137.476L65.3687 137.337L63.9211 137.063L61.9291 136.672L61.5141 136.589L60.7439 136.432L60.3694 136.355L59.6726 136.214L59.3348 136.145L58.7094 136.013L58.4064 135.95L57.8505 135.832L57.5803 135.775L57.088 135.667L56.8506 135.616L56.4202 135.518L56.2117 135.47L55.8392 135.384L55.6597 135.341L55.3412 135.26L55.0362 135.183L54.573 135.049L54.3645 134.985L54.075 134.874L53.9495 134.819L53.8067 134.723L53.7256 134.589V134.497L53.8144 134.406L54.0634 134.412L54.0885 134.42L54.1908 134.442L54.2506 134.456L54.4205 134.487L54.5131 134.505L54.7467 134.544L54.8721 134.566L55.1636 134.615L55.3161 134.64L55.6616 134.695L55.8411 134.725L56.2368 134.786L56.6441 134.849L57.586 134.992L58.0763 135.067L59.1553 135.226L59.7093 135.307L60.8906 135.478L64.6314 136.005L65.1082 136.07L66.0192 136.2L66.4574 136.263L67.2276 136.375L67.4071 136.401L67.7236 136.448L67.8742 136.471L68.127 136.511L68.2448 136.53L68.4204 136.558L68.5884 136.589L68.6212 136.597L68.7409 136.617L68.8084 136.629L68.9899 136.654L69.1848 136.682L69.7234 136.753L70.011 136.788L70.6865 136.869L71.7733 136.993L72.1439 137.034L72.9681 137.13L73.3831 137.181L74.2208 137.286L74.6319 137.339L75.3847 137.439L75.5623 137.465L75.8866 137.51L76.3093 137.573L76.4348 137.593L76.7513 137.636L76.9173 137.657L77.3034 137.707L77.7029 137.756L78.6526 137.862L81.714 138.165L82.2042 138.206L83.123 138.291L83.565 138.332L84.3217 138.409L84.4954 138.426L84.8004 138.458L84.9452 138.474L85.1807 138.501L85.2887 138.515L85.4432 138.537L85.5744 138.56L85.6034 138.568L85.7037 138.586L85.7617 138.596L85.9219 138.617L86.0087 138.629L86.2211 138.653L86.333 138.664L86.5974 138.69L86.8715 138.717L87.551 138.775L87.9119 138.804L88.74 138.867L89.1685 138.898L90.1124 138.963L90.5969 138.997L91.6257 139.062L94.8801 139.245L95.8452 139.294L97.9298 139.367L98.9895 139.396L101.192 139.433L102.3 139.447L104.537 139.451L105.651 139.449L107.832 139.42L108.909 139.402L110.947 139.341L111.445 139.325L112.397 139.286L112.866 139.266L113.752 139.221L114.186 139.195L114.997 139.144L115.393 139.117L116.116 139.056L116.466 139.026L117.091 138.959L117.906 138.853L118.448 138.771L119.473 138.609L119.975 138.527L120.927 138.367L121.394 138.287L122.282 138.124L122.718 138.043L123.55 137.878L124.37 137.711L125.876 137.353L126.611 137.17L128.003 136.766L128.69 136.556L130.032 136.084L130.703 135.836L132.064 135.276L132.751 134.983L134.197 134.312L134.566 134.137L135.334 133.763L136.533 133.161L137.444 132.699L139.15 131.787L139.988 131.33L141.561 130.414L142.333 129.956L143.798 129.023L144.518 128.553L145.896 127.586L146.577 127.096L147.894 126.077L148.546 125.56L149.822 124.472L150.459 123.92L151.722 122.745L153.623 120.871L154.156 120.326L155.161 119.251L155.655 118.714L156.584 117.646L157.041 117.113L157.902 116.045L158.323 115.512L159.122 114.436L159.514 113.895L160.255 112.802L160.62 112.253L161.313 111.132L161.653 110.567L162.301 109.411L163.233 107.627L163.681 106.728L164.507 104.925L164.704 104.482L165.065 103.636L165.239 103.221L165.546 102.452L165.691 102.081L165.932 101.42L166.042 101.107L166.204 100.584L166.274 100.344L166.345 99.99L166.357 99.9153L166.36 99.7993L166.337 99.6852L166.322 99.6616L166.202 99.575L166.129 99.5259L165.899 99.3902L165.77 99.3174L165.442 99.1404L165.264 99.046L164.847 98.8316L164.629 98.7215L164.137 98.4756L163.882 98.3478L163.326 98.0764L162.757 97.7991L161.475 97.1894L160.819 96.8806L159.437 96.2414L158.742 95.9208L157.354 95.2934L156.667 94.9866L155.366 94.4182L155.049 94.2825L154.451 94.0268L153.615 93.6787L153.324 93.5607L152.737 93.307L152.449 93.1791L151.917 92.9313L151.664 92.8114L151.247 92.599L151.152 92.5498L150.996 92.4632L150.816 92.3531L150.724 92.2902L150.417 92.1309L150.247 92.0463L149.822 91.8575L149.376 91.6647L148.342 91.2655L148.089 91.1711L147.606 91.0039L147.373 90.9252L146.971 90.8013L146.784 90.7463L146.512 90.6833L146.454 90.6715L146.371 90.6656L146.301 90.6794L146.286 90.6932L146.307 90.8584L146.325 90.9606L146.4 91.2694L146.444 91.4386L146.564 91.8516L146.78 92.5439L146.996 93.1929L147.363 94.4792L147.537 95.1203L147.822 96.3928L147.956 97.0281L148.16 98.2888L148.253 98.9182L148.376 100.171L148.427 100.796L148.471 102.043L148.481 102.665L148.444 103.908L148.415 104.529L148.297 105.77L148.029 107.633L147.919 108.25L147.641 109.462L147.492 110.064L147.135 111.238L146.946 111.822L146.512 112.957L146.286 113.519L145.778 114.613L145.516 115.154L144.939 116.202L144.641 116.719L143.995 117.72L143.663 118.212L142.951 119.162L142.586 119.63L141.812 120.525L141.416 120.964L140.58 121.801L140.156 122.212L139.262 122.991L138.808 123.373L137.861 124.087L137.378 124.437L136.378 125.086L135.87 125.403L134.82 125.983L134.288 126.264L133.189 126.771L132.635 127.017L131.493 127.452L129.73 128.016L129.256 128.15L128.294 128.378L127.81 128.486L126.835 128.663L126.345 128.746L125.357 128.872L124.862 128.929L123.864 129.002L122.867 129.065L120.847 129.035L119.838 128.996L117.811 128.768L116.798 128.628L114.779 128.201L113.771 127.963L111.779 127.34L110.787 127.003L108.836 126.187L105.977 124.746L105.018 124.205L103.186 123.005L102.286 122.387L100.582 121.04L99.7462 120.35L98.1769 118.865L97.4106 118.106L95.9842 116.497L95.2912 115.677L94.0192 113.952L93.4034 113.075L92.2936 111.246L91.7608 110.319L90.8247 108.396L89.6221 105.418L89.35 104.641L88.9157 103.16L88.7149 102.425L88.4157 100.964L88.2806 100.228L88.0972 98.7038L88.0586 98.3144L88.0007 97.51L87.939 96.2532L87.9216 95.7202L87.9197 94.6719L87.9235 94.1507L87.9641 93.13L87.9911 92.6245L88.0741 91.6392L88.1204 91.1495L88.2459 90.2034L88.3134 89.7373L88.4794 88.8365L88.5682 88.3921L88.7747 87.5405L88.8828 87.1235L89.128 86.3289L89.541 85.2039L89.6047 85.0505L89.6935 84.8008L89.7283 84.6828L89.7264 84.4998L89.7109 84.4172L89.5719 84.2953L89.5275 84.2697L89.4021 84.2265L89.3345 84.2068L89.1589 84.1773L89.0662 84.1635L88.8346 84.1478L88.713 84.1399L88.4196 84.134H88.2652L87.9061 84.1399L87.717 84.1439L87.2846 84.1596L87.0588 84.1675L86.5473 84.193L86.2809 84.2068L85.6825 84.2402L85.3737 84.2579L84.6865 84.2992L83.5477 84.3681L83.179 84.3897L82.486 84.4408L82.1444 84.4684L81.492 84.5313L80.8434 84.5962L79.583 84.7752L78.946 84.8755L77.5833 85.139L77.2281 85.2118L76.4734 85.379L75.2477 85.6602L74.7169 85.7861L73.5722 86.0418L73.302 86.1008L72.8194 86.2011L72.2558 86.3132L72.1979 86.323L71.9933 86.3781L71.8775 86.4096L71.5687 86.504L71.4007 86.5571L70.9992 86.6869L70.7869 86.7557L70.3044 86.919L70.0534 87.0035L69.5033 87.1904L69.2196 87.2887L68.6154 87.4991L67.9977 87.7135L66.6543 88.1914L65.9729 88.4334L64.5754 88.9408L63.8805 89.1925L62.5332 89.6921L61.875 89.9379L60.6783 90.3923L60.3926 90.5004L59.8695 90.705L59.165 90.9862L58.9739 91.0629L58.555 91.2537L58.3388 91.354L57.8679 91.5939L57.6266 91.7178L57.1054 92.007L56.8371 92.1564L56.2638 92.4947L55.9704 92.6698L55.3431 93.0592L55.0227 93.2578L54.3394 93.6984L53.992 93.9246L53.2546 94.4143L52.0849 95.2088L51.5406 95.5825L50.504 96.3201L49.9944 96.6898L49.012 97.4273L48.0391 98.1688L46.1726 99.7245L45.7055 100.124L44.7674 100.964L44.2945 101.392L43.3313 102.301L42.8449 102.765L41.8353 103.756L40.2526 105.359L39.9669 105.652L39.4477 106.185L39.1967 106.443L38.7393 106.909L38.5173 107.133L38.1139 107.538L37.917 107.733L37.558 108.083L37.3842 108.252L37.0619 108.551L36.9055 108.697L36.6141 108.953L36.3265 109.198L35.8092 109.58L35.5524 109.755L35.0467 110.032L34.79 110.16L34.2341 110.376L33.9426 110.481L33.2709 110.677L33.0933 110.729L32.7053 110.833L32.0645 111.004L31.6379 111.118L30.7906 111.285L30.362 111.36L29.4413 111.458L29.202 111.48L28.6924 111.509L28.4299 111.521L27.8682 111.537L27.5806 111.543H26.9552L25.9302 111.531L25.7777 111.529L25.5268 111.523L25.4091 111.519L25.2257 111.511L25.1427 111.505L25.0211 111.492L24.967 111.486L24.9014 111.464L24.8474 111.441L24.8802 111.36L25.0925 111.167L25.1504 111.12L25.3357 110.923L25.438 110.811L25.689 110.514L26.5402 109.423L26.7293 109.165L27.1424 108.624L27.3547 108.349L27.8122 107.774L28.2793 107.194L29.3217 105.961L29.8583 105.336L31.0106 104.045L31.5955 103.396L32.8154 102.091L33.4292 101.442L34.6761 100.165L35.2977 99.5337L36.5291 98.3301L37.141 97.7401L38.3185 96.6505L38.608 96.3869L39.1678 95.8893L39.9785 95.1931L40.2506 94.963L40.737 94.5401L40.9648 94.3376L41.3316 93.9973L41.4146 93.9187L41.5516 93.7849L41.6134 93.722L41.706 93.6217L41.7485 93.5764L41.7929 93.5135L41.8006 93.4683L41.7871 93.4643L41.7157 93.4781L41.6713 93.4899L41.542 93.5332L41.4686 93.5587L41.2852 93.6315L41.1868 93.6689L40.9552 93.7652L40.712 93.8675L40.102 94.137L39.7777 94.2805L39.0384 94.6208L38.6543 94.7978L37.8224 95.1892L37.3977 95.3898L36.5118 95.8166L33.8442 97.1382L33.1146 97.51L31.6109 98.3144L30.862 98.7215L29.4047 99.5514L29.0476 99.756L28.3623 100.161L28.0245 100.362L27.3895 100.749L27.0807 100.94L26.5093 101.304L25.7391 101.811L25.5867 101.915L25.3126 102.094L25.1813 102.179L24.9497 102.321L24.8397 102.386L24.6505 102.486L24.5598 102.533L24.4092 102.596L24.3397 102.624L24.2278 102.651L24.1757 102.659L24.0984 102.649L24 102.484V102.47L24.0405 102.405L24.0656 102.368L24.1563 102.26L24.2065 102.201L24.3397 102.057L24.4111 101.978L24.5829 101.801L24.7644 101.615L25.2257 101.162L25.4689 100.926L26.0248 100.401L26.5962 99.8622L27.8566 98.7195L28.1693 98.4402L28.7754 97.9112L29.617 97.1972L30.3968 96.5521L31.8889 95.3741L32.6397 94.7919L34.2187 93.6354L34.6279 93.3404L35.4965 92.7327L35.9404 92.4239L36.8959 91.7729L37.3881 91.4405L38.4574 90.7305L40.214 89.578L40.4475 89.4246L40.9803 89.0962L41.2563 88.927L41.8662 88.5651L42.1809 88.3822L42.8603 87.9967L43.2077 87.8001L43.9451 87.3949L44.696 86.9839L46.3289 86.1224L47.1609 85.6878L48.9 84.8106L49.7744 84.372L51.5367 83.5184L52.413 83.0975L54.1193 82.3049L54.959 81.9195L56.5302 81.2311L56.9105 81.0678L57.6324 80.765L58.6477 80.3578L59.0183 80.2123L59.7151 79.9311L59.8734 79.8662L60.1282 79.76L60.3849 79.6459L60.4872 79.5987L60.7825 79.4767L60.9447 79.4118L61.3519 79.2604L61.5681 79.1817L62.0719 79.0047L62.3364 78.9123L62.9231 78.7156L63.2262 78.6133L63.8825 78.399L64.2183 78.2908L64.9306 78.0626L65.6544 77.8325L67.2102 77.3546L67.9958 77.1127L69.596 76.6387L70.3893 76.4047L71.92 75.9661L72.2944 75.8618L73.0086 75.6632L73.3599 75.5668L74.022 75.3898L74.3424 75.3052L74.935 75.1518L75.7302 74.9591L76.871 74.6916L79.0348 74.2117L79.5637 74.0957L80.5828 73.8813L81.0847 73.7771L82.044 73.5843L82.515 73.4919L83.4106 73.3227L83.8488 73.2421L84.6711 73.0985L85.0706 73.0297L85.8138 72.9117L86.8291 72.7662L87.2537 72.7111L88.1744 72.5675L88.3926 72.5321L88.7825 72.4633L89.2419 72.3728L89.3017 72.361L89.5256 72.3256L89.653 72.3059L89.9985 72.2587L90.1838 72.2351L90.6355 72.1801L90.8748 72.1525L91.4153 72.0896L91.6952 72.0581L92.3071 71.9913L92.6217 71.9578L93.2896 71.887L95.4186 71.6746L95.7352 71.6431L96.32 71.5881L96.6038 71.5625L97.1307 71.5133L97.648 71.4661L98.5572 71.3934L99.4431 71.3245L101.084 71.2557L101.512 71.2439L102.449 71.2321L102.692 71.2301H103.213M89.9367 94.8411L89.9213 94.8725L89.8943 94.9551L89.8769 95.024L89.8827 95.3032L89.9252 95.6042L89.9638 95.8048L90.0526 96.2335L90.1124 96.4872L90.2398 97.0202L90.317 97.3152L90.4772 97.923L90.5679 98.2475L90.7552 98.9044L90.8555 99.2446L91.2763 100.617L91.5002 101.28L92.6603 104.384L93.085 105.401L93.305 105.894L93.749 106.872L93.9729 107.34L94.4245 108.256L94.6504 108.685L95.1001 109.521L95.3202 109.901L95.7564 110.634L95.9687 110.955L96.3837 111.564L96.5787 111.816L97.2523 112.709L97.4685 113.006L97.5612 113.138L97.7368 113.39L97.8005 113.484L98.065 113.846L98.2773 114.109L98.3989 114.251L98.9316 114.837L99.252 115.158L99.9276 115.817L100.31 116.163L101.097 116.865L101.52 117.223L102.385 117.939L102.835 118.295L103.742 118.999L104.199 119.335L105.116 119.998L105.568 120.305L106.46 120.897L106.886 121.156L108.176 121.908L109.023 122.362L109.448 122.568L110.301 122.97L110.739 123.153L111.623 123.507L112.086 123.67L113.026 123.988L113.526 124.138L114.547 124.429L115.097 124.567L116.223 124.838L116.835 124.97L118.089 125.231L118.774 125.361L118.915 125.383L119.014 125.391L119.228 125.404L119.359 125.41L119.637 125.418L119.796 125.42L120.128 125.424L120.311 125.422L121.083 125.414L121.511 125.404L122.394 125.377L122.847 125.357L123.76 125.316L124.2 125.29L125.067 125.235L125.457 125.206L126.198 125.143L126.497 125.109L126.781 125.076L126.901 125.058L127.123 125.023L127.208 125.005L128.64 124.667L129.607 124.399L130.088 124.25L131.045 123.937L131.51 123.77L132.429 123.426L132.867 123.245L133.722 122.879L134.116 122.692L134.88 122.317L135.218 122.128L135.865 121.752L136.133 121.567L136.635 121.203L136.822 121.028L137.112 120.759L137.254 120.619L137.293 120.57L137.349 120.488L137.336 120.468L137.281 120.444L137.206 120.456L137.021 120.495L136.872 120.541L136.533 120.647L136.299 120.726L136.054 120.81L135.915 120.859L135.621 120.96L135.457 121.019L135.116 121.139L134.925 121.205L134.531 121.345L134.313 121.422L132.641 121.974L131.564 122.293L131.043 122.427L130.01 122.677L129.512 122.777L128.522 122.96L128.043 123.027L127.096 123.145L126.634 123.178L125.725 123.229H125.281L124.405 123.215L123.98 123.184L123.135 123.105L122.724 123.04L119.409 122.421L117.313 121.919L116.315 121.622L114.354 120.995L113.416 120.631L111.565 119.868L110.675 119.431L108.917 118.523L108.064 118.009L106.377 116.944L105.55 116.348L103.914 115.114L103.105 114.432L101.497 113.022L100.696 112.247L100.125 111.675L99.7057 111.236L99.4837 110.996L98.5668 109.989L98.1055 109.46L97.1944 108.396L96.7949 107.904L96.4069 107.422L96.237 107.204L95.9127 106.781L95.7834 106.598L95.5113 106.203L95.3163 105.9L95.2121 105.733L94.7797 105.021L94.5461 104.614L94.0713 103.768L93.8242 103.312L93.3282 102.38L93.083 101.898L92.5908 100.928L92.3553 100.446L91.894 99.4846L91.6836 99.0244L91.2763 98.1216L91.1007 97.7086L90.7706 96.9101L90.6432 96.5679L90.3189 95.6887L90.2244 95.4331L90.1857 95.3308L90.1182 95.1459L90.0989 95.0928L90.0217 94.904L89.9831 94.8371L89.9676 94.8312M143.308 93.008L142.715 93.0631L142.441 93.1614L142.171 93.2736L142.043 93.3503L141.794 93.5135L141.679 93.6158L141.173 94.194L140.961 94.5972L140.916 94.8116L140.868 95.2521L140.905 95.4901L141.016 95.9778L141.134 96.2453L141.572 96.9829L141.96 97.4569L142.182 97.6634L142.634 98.0528L142.86 98.1924L143.084 98.3222L143.192 98.3675L143.402 98.4501L143.501 98.4697L143.933 98.6015L144.047 98.6546L144.087 98.6802L144.159 98.7333L144.172 98.7569L144.281 98.8729L144.369 98.8985L144.57 98.926L144.705 98.9083L144.993 98.8473L145.166 98.7864L145.537 98.6408L145.749 98.5366L146.392 98.1452L146.715 97.86L146.826 97.6988L147.02 97.3605L147.072 97.1638L147.149 96.7528V96.5148L147.108 96.0329L147.041 95.7222L146.989 95.5727L146.738 94.9886L146.552 94.727L146.147 94.2274L145.902 94.015L145.387 93.6197L145.103 93.4683L144.518 93.2008L144.217 93.1221L143.607 93.0041L143.308 93.008Z" fill="#16151C"/>
</g>
</g>
<defs>
<clipPath id="clip0_662_2">
<rect width="214" height="214" rx="10" fill="white"/>
</clipPath>
<clipPath id="clip1_662_2">
<rect width="166" height="71" fill="white" transform="translate(24 71)"/>
</clipPath>
</defs>
</svg>
