<svg width="245" height="214" viewBox="0 0 245 214" fill="none" xmlns="http://www.w3.org/2000/svg">
<g clip-path="url(#clip0_884_64)">
<mask id="mask0_884_64" style="mask-type:luminance" maskUnits="userSpaceOnUse" x="0" y="0" width="245" height="214">
<path d="M245 0H0V214H245V0Z" fill="white"/>
</mask>
<g mask="url(#mask0_884_64)">
<path d="M183.76 0.253845C185.687 0.834427 187.467 1.46126 188.837 2.91077C191.375 5.59466 192.203 9.59582 190.71 12.8868C189.104 16.4234 186.387 18.2151 182.459 18.3419C178.112 18.4822 174.17 14.8981 173.679 10.6138C173.102 5.59148 176.135 1.33729 180.846 0.343639C181.802 0.253845 182.724 0.253845 183.76 0.253845Z" fill="#033E55"/>
<path d="M215.495 140.468C215.573 139.453 215.739 138.428 215.913 137.404C216.711 132.697 217.81 128.018 218.233 123.276C218.728 117.709 218.925 112.076 218.726 106.491C218.479 99.5646 217.221 92.7407 215.429 86.0354C213.453 78.6421 210.628 71.5973 207.115 64.8298C206.44 63.5301 205.75 62.2387 205.063 60.8549C218.287 61.9252 228.704 68.1007 235.933 79.3712C247.291 97.0781 243.635 120.222 227.576 133.621C223.99 136.613 220.007 138.949 215.495 140.468Z" fill="#347692"/>
<path d="M20.6341 11.5873C30.5995 10.2057 39.419 18.0673 39.4203 28.2125C39.421 35.84 34.5275 42.5456 27.5505 44.4772C20.0007 46.5672 12.3675 43.5215 8.56936 36.7527C3.67679 28.0335 7.05445 16.4291 17.0532 12.5394C18.1643 12.1072 19.3653 11.9143 20.6341 11.5873Z" fill="#033E55"/>
<path d="M243.182 200.962C239.524 207.982 232.5 211.949 225.214 211.167C217.642 210.355 211.534 205.124 209.457 197.672C206.693 187.754 212.816 177.05 222.742 174.831C234.049 172.304 243.749 180.091 244.949 190.784C245.341 194.276 244.808 197.692 243.182 200.962ZM223.141 200.615C226.428 202.144 229.578 201.843 232.356 199.532C235.182 197.182 236.169 194.01 235.185 190.435C234.201 186.855 231.709 184.79 228.116 184.14C224.325 183.454 220.094 185.942 218.89 189.832C217.625 193.919 218.745 198.208 223.141 200.615Z" fill="#033E55"/>
<path d="M53.6446 184.792C53.6092 194.263 47.5069 202.965 38.4429 206.594C24.9394 212.001 9.26585 203.169 6.77112 188.602C4.38973 174.697 12.7958 163.602 24.4637 160.594C37.8277 157.149 51.5142 166.576 53.4273 180.502C53.6159 181.874 53.5778 183.279 53.6446 184.792Z" fill="#22596D"/>
<path fill-rule="evenodd" clip-rule="evenodd" d="M60.5095 191.274C60.3076 192.177 60.1048 193.086 59.9334 194.009C60.4443 194.373 60.9473 194.736 61.4465 195.096C62.674 195.983 63.8773 196.852 65.1136 197.669C78.3538 206.426 92.8517 211.667 108.526 213.439C117.86 214.496 127.179 214.151 136.451 212.519C153.287 209.557 168.383 202.623 181.647 191.728C198.008 178.289 209.166 161.237 215.081 140.672C215.137 140.6 215.194 140.528 215.327 140.461C215.404 140.465 215.403 140.478 215.403 140.478C215.456 140.156 215.509 139.834 215.562 139.512C215.678 138.809 215.794 138.107 215.913 137.405C216.159 135.955 216.433 134.508 216.707 133.062C217.324 129.81 217.94 126.558 218.233 123.276C218.728 117.709 218.925 112.076 218.726 106.491C218.479 99.5646 217.221 92.7407 215.429 86.0354C213.453 78.6421 210.628 71.5973 207.115 64.8298C206.441 63.5301 205.75 62.2387 204.985 60.8143C204.859 60.6344 204.741 60.4762 204.631 60.3295C204.459 60.0977 204.307 59.8941 204.177 59.6771C198.571 50.3057 191.613 42.0983 183.301 35.1399C161.42 16.8214 136.29 9.19845 108.139 12.0592C97.2367 13.1671 86.8113 16.2741 76.9112 21.0812C59.6091 29.4825 45.7286 41.8661 35.3927 58.3095C27.797 70.3938 22.969 83.5438 20.8933 97.7422C19.5513 106.922 19.5372 116.122 20.5643 125.314C21.5867 134.464 24.0029 143.269 27.5338 151.783C28.8226 151.599 30.0798 151.519 31.3143 151.529C33.2982 151.542 35.2458 151.793 37.1681 152.215C45.8409 154.121 52.5717 158.932 57.1955 166.649C61.1763 173.294 62.4762 180.509 61.1489 188.179C60.9695 189.214 60.7402 190.241 60.5095 191.274ZM91.2949 37.09C96.9493 34.8914 102.803 33.518 108.766 32.5709C110.098 32.5085 111.408 32.432 112.704 32.3566C115.576 32.1891 118.375 32.0259 121.175 32.0279C131.32 32.0353 141.02 34.3334 150.345 38.3294C161.331 43.0371 170.743 50.0189 178.649 59.0508C186.905 68.4843 192.67 79.33 195.901 91.5575C197.285 96.7973 198.081 102.113 198.439 107.525C199.404 122.118 196.67 135.947 190.256 149.012C185.942 157.797 180.233 165.557 173.113 172.195C162.167 182.399 149.414 189.075 134.846 192.036C126.651 193.701 118.39 194.012 110.064 193.019C100.378 191.864 91.2263 189.013 82.5984 184.43C73.8113 179.763 66.2078 173.565 59.644 165.998C53.892 159.367 49.3904 151.96 46.0357 143.833C43.4034 137.457 41.4903 130.836 40.779 123.948C40.2902 119.213 39.903 114.42 40.0527 109.672C40.4576 96.8369 43.7888 84.7679 49.9303 73.5068C54.1659 65.7399 59.524 58.8888 65.9479 52.9131C73.3889 45.991 81.8709 40.7542 91.2949 37.09Z" fill="#22596D"/>
<path fill-rule="evenodd" clip-rule="evenodd" d="M112.751 32.3536C111.468 32.4282 110.178 32.5034 108.876 32.5638C102.803 33.518 96.9494 34.8914 91.2949 37.09C81.8709 40.7542 73.389 45.9907 65.9477 52.9128C59.5238 58.8888 54.1659 65.7399 49.9301 73.5068C43.7889 84.7678 40.4577 96.8366 40.0528 109.672C39.9031 114.42 40.29 119.213 40.779 123.948C41.4903 130.836 43.4034 137.457 46.0358 143.833C49.3904 151.96 53.892 159.367 59.644 165.998C66.2079 173.565 73.8114 179.762 82.5984 184.43C91.2263 189.013 100.378 191.864 110.064 193.019C118.39 194.012 126.652 193.701 134.846 192.036C149.414 189.075 162.167 182.399 173.113 172.195C180.233 165.557 185.942 157.797 190.256 149.011C196.67 135.947 199.405 122.118 198.439 107.525C198.081 102.113 197.285 96.7973 195.901 91.5575C192.671 79.33 186.905 68.4843 178.649 59.0508C170.744 50.0186 161.331 43.0371 150.345 38.3293C141.02 34.3334 131.32 32.0352 121.175 32.0279C118.379 32.0259 115.583 32.1886 112.751 32.3536Z" fill="#D8D8D9"/>
<path d="M70.0054 102.96C66.4005 104.859 62.7941 106.757 59.1924 108.663C58.7616 108.891 58.3549 109.167 57.937 109.42C57.8577 109.321 57.7781 109.221 57.6987 109.122C59.2019 107.742 60.6569 106.302 62.2173 104.992C68.46 99.7491 75.4897 95.8481 82.9554 92.7694C93.3669 88.4757 104.23 86.1024 115.445 85.6924C122.382 85.4391 129.289 85.8848 136.102 87.6204C142.927 89.3591 149.581 91.541 156.113 94.1851C163.442 97.1522 170.832 99.9654 178.19 102.859C178.885 103.133 179.575 103.451 180.212 103.84C181.157 104.416 181.213 105.15 180.223 105.643C178.667 106.418 177.028 107.045 175.379 107.596C174.003 108.055 172.534 108.232 171.163 108.702C170.588 108.899 169.926 109.429 169.694 109.978C164.643 121.947 155.996 130.142 144.304 135.157C138.885 137.481 133.194 138.513 127.343 138.891C114.641 139.71 102.126 138.176 89.663 135.937C86.9248 135.446 84.2071 134.834 81.4824 134.265C80.97 134.158 80.4695 133.991 79.9947 133.581C80.1998 133.581 80.4079 133.559 80.61 133.584C89.6328 134.726 98.6327 136.129 107.684 136.939C115.835 137.669 124.067 137.905 132.132 135.962C140.456 133.956 147.561 129.652 153.648 123.555C157.96 119.237 161.086 114.17 163.157 108.397C163.477 107.503 163.369 107.048 162.486 106.642C158.36 104.749 154.261 102.794 150.146 100.878C149.705 100.673 149.215 100.576 148.576 100.374C149.025 102.254 149.517 103.936 149.822 105.652C151.482 114.975 147.17 123.772 138.832 127.653C132.937 130.398 126.911 130.021 121.064 127.394C112.898 123.727 107.635 117.437 105.608 108.57C104.734 104.747 104.887 100.841 106.059 97.038C106.191 96.6087 106.306 96.1738 106.461 95.6252C106.024 95.5529 105.713 95.4539 105.403 95.4572C96.6974 95.5478 88.5842 97.9957 81.0127 102.204C76.1241 104.92 72.1408 108.87 68.2966 112.943C65.7912 115.598 62.2305 116.684 58.4218 116.065C61.8211 111.279 65.7782 107.11 70.179 103.157C70.2778 102.991 70.2791 102.932 70.2806 102.873C70.189 102.902 70.0972 102.931 70.0054 102.96ZM141.268 123.118C139.557 123.634 137.876 124.313 136.132 124.638C130.488 125.688 125.304 124.054 120.495 121.254C114.532 117.782 110.323 112.644 107.705 106.169C107.547 105.778 107.275 105.436 107.057 105.071C107.089 106.144 107.364 107.056 107.642 107.967C109.553 114.227 112.865 119.427 118.448 122.964C125.499 127.431 132.742 128.016 140.227 124.201C140.695 123.962 141.042 123.474 141.533 123.131C141.581 123.096 141.628 123.061 141.676 123.026C141.65 123.011 141.611 122.978 141.602 122.985C141.551 123.027 141.508 123.077 141.268 123.118ZM147.753 102.583C146.715 101.983 145.713 101.845 144.855 102.89C144.137 103.764 144.465 104.66 145.145 105.249C145.824 105.838 146.707 106.364 147.56 106.488C148.008 106.553 148.844 105.799 149.05 105.242C149.447 104.164 148.774 103.321 147.753 102.583Z" fill="#1F7496"/>
</g>
</g>
<defs>
<clipPath id="clip0_884_64">
<rect width="245" height="214" fill="white"/>
</clipPath>
</defs>
</svg>
